%TF.GenerationSoftware,KiCad,Pcbnew,(5.1.10)-1*%
%TF.CreationDate,2021-10-13T19:13:19-05:00*%
%TF.ProjectId,electroporator,656c6563-7472-46f7-906f-7261746f722e,rev?*%
%TF.SameCoordinates,Original*%
%TF.FileFunction,Copper,L2,Bot*%
%TF.FilePolarity,Positive*%
%FSLAX46Y46*%
G04 Gerber Fmt 4.6, Leading zero omitted, Abs format (unit mm)*
G04 Created by KiCad (PCBNEW (5.1.10)-1) date 2021-10-13 19:13:19*
%MOMM*%
%LPD*%
G01*
G04 APERTURE LIST*
%TA.AperFunction,ComponentPad*%
%ADD10O,3.960000X1.980000*%
%TD*%
%TA.AperFunction,ComponentPad*%
%ADD11R,3.960000X1.980000*%
%TD*%
%TA.AperFunction,ComponentPad*%
%ADD12C,2.000000*%
%TD*%
%TA.AperFunction,ComponentPad*%
%ADD13C,1.400000*%
%TD*%
%TA.AperFunction,ComponentPad*%
%ADD14R,1.400000X1.400000*%
%TD*%
%TA.AperFunction,ComponentPad*%
%ADD15C,1.600000*%
%TD*%
%TA.AperFunction,ComponentPad*%
%ADD16R,1.600000X1.600000*%
%TD*%
%TA.AperFunction,ComponentPad*%
%ADD17R,1.800000X1.800000*%
%TD*%
%TA.AperFunction,ComponentPad*%
%ADD18C,1.800000*%
%TD*%
%TA.AperFunction,ComponentPad*%
%ADD19R,1.980000X3.960000*%
%TD*%
%TA.AperFunction,ComponentPad*%
%ADD20O,1.980000X3.960000*%
%TD*%
%TA.AperFunction,ComponentPad*%
%ADD21O,1.500000X1.050000*%
%TD*%
%TA.AperFunction,ComponentPad*%
%ADD22R,1.500000X1.050000*%
%TD*%
%TA.AperFunction,ComponentPad*%
%ADD23O,1.600000X1.600000*%
%TD*%
%TA.AperFunction,ComponentPad*%
%ADD24R,2.000000X1.905000*%
%TD*%
%TA.AperFunction,ComponentPad*%
%ADD25O,2.000000X1.905000*%
%TD*%
%TA.AperFunction,Conductor*%
%ADD26C,0.250000*%
%TD*%
G04 APERTURE END LIST*
D10*
%TO.P,R3,2*%
%TO.N,+5V*%
X107950000Y-75612000D03*
D11*
%TO.P,R3,1*%
%TO.N,Net-(C2-Pad1)*%
X107950000Y-70612000D03*
%TD*%
D12*
%TO.P,SW4,1*%
%TO.N,+VDC*%
X165100000Y-101450000D03*
%TO.P,SW4,2*%
%TO.N,Net-(J2-Pad1)*%
X169600000Y-101450000D03*
%TO.P,SW4,1*%
%TO.N,+VDC*%
X165100000Y-107950000D03*
%TO.P,SW4,2*%
%TO.N,Net-(J2-Pad1)*%
X169600000Y-107950000D03*
%TD*%
D13*
%TO.P,SW3,6*%
%TO.N,N/C*%
X168830000Y-81278000D03*
%TO.P,SW3,5*%
X166330000Y-81278000D03*
%TO.P,SW3,4*%
X163830000Y-81278000D03*
%TO.P,SW3,3*%
X168830000Y-77978000D03*
%TO.P,SW3,2*%
%TO.N,Net-(J2-Pad1)*%
X166330000Y-77978000D03*
D14*
%TO.P,SW3,1*%
%TO.N,Net-(K1-Pad14)*%
X163830000Y-77978000D03*
%TD*%
D15*
%TO.P,C1,2*%
%TO.N,Net-(C1-Pad2)*%
X127984000Y-82550000D03*
D16*
%TO.P,C1,1*%
%TO.N,Net-(C1-Pad1)*%
X125984000Y-82550000D03*
%TD*%
%TO.P,C2,1*%
%TO.N,Net-(C2-Pad1)*%
X118364000Y-82550000D03*
D15*
%TO.P,C2,2*%
%TO.N,Net-(C2-Pad2)*%
X120364000Y-82550000D03*
%TD*%
D17*
%TO.P,D1,1*%
%TO.N,Net-(D1-Pad1)*%
X123698000Y-104394000D03*
D18*
%TO.P,D1,2*%
%TO.N,Net-(D1-Pad2)*%
X126238000Y-104394000D03*
%TD*%
D11*
%TO.P,J1,1*%
%TO.N,GND*%
X107950000Y-86360000D03*
D10*
%TO.P,J1,2*%
%TO.N,+5V*%
X107950000Y-91360000D03*
%TD*%
%TO.P,J2,2*%
%TO.N,-VDC*%
X164592000Y-87964000D03*
D11*
%TO.P,J2,1*%
%TO.N,Net-(J2-Pad1)*%
X164592000Y-92964000D03*
%TD*%
D19*
%TO.P,J3,1*%
%TO.N,-VDC*%
X152908000Y-104140000D03*
D20*
%TO.P,J3,2*%
%TO.N,+VDC*%
X157908000Y-104140000D03*
%TD*%
D13*
%TO.P,K1,13*%
%TO.N,Net-(K1-Pad13)*%
X146812000Y-95250000D03*
%TO.P,K1,9*%
%TO.N,Net-(K1-Pad9)*%
X146812000Y-105510000D03*
%TO.P,K1,6*%
%TO.N,Net-(D1-Pad1)*%
X139192000Y-105510000D03*
%TO.P,K1,2*%
%TO.N,+5V*%
X139192000Y-95250000D03*
D14*
%TO.P,K1,1*%
%TO.N,Net-(K1-Pad1)*%
X139192000Y-92710000D03*
D13*
%TO.P,K1,8*%
%TO.N,+VDC*%
X146812000Y-107950000D03*
%TO.P,K1,7*%
%TO.N,Net-(K1-Pad7)*%
X139192000Y-107950000D03*
%TO.P,K1,14*%
%TO.N,Net-(K1-Pad14)*%
X146812000Y-92710000D03*
%TD*%
D21*
%TO.P,Q1,2*%
%TO.N,Net-(Q1-Pad2)*%
X142494000Y-83820000D03*
%TO.P,Q1,3*%
%TO.N,Net-(D1-Pad1)*%
X142494000Y-85090000D03*
D22*
%TO.P,Q1,1*%
%TO.N,Net-(C2-Pad2)*%
X142494000Y-82550000D03*
%TD*%
D23*
%TO.P,R1,2*%
%TO.N,Net-(C1-Pad2)*%
X129540000Y-96520000D03*
D15*
%TO.P,R1,1*%
%TO.N,+5V*%
X116840000Y-96520000D03*
%TD*%
%TO.P,R2,1*%
%TO.N,+5V*%
X116840000Y-90170000D03*
D23*
%TO.P,R2,2*%
%TO.N,Net-(C1-Pad1)*%
X129540000Y-90170000D03*
%TD*%
%TO.P,R4,2*%
%TO.N,Net-(Q1-Pad2)*%
X134112000Y-92456000D03*
D15*
%TO.P,R4,1*%
%TO.N,Net-(R4-Pad1)*%
X134112000Y-79756000D03*
%TD*%
%TO.P,R5,1*%
%TO.N,+5V*%
X134112000Y-95758000D03*
D23*
%TO.P,R5,2*%
%TO.N,Net-(D1-Pad2)*%
X134112000Y-108458000D03*
%TD*%
D15*
%TO.P,R6,1*%
%TO.N,Net-(R6-Pad1)*%
X151638000Y-82042000D03*
D23*
%TO.P,R6,2*%
%TO.N,Net-(J2-Pad1)*%
X151638000Y-94742000D03*
%TD*%
D14*
%TO.P,SW1,1*%
%TO.N,GND*%
X105664000Y-100330000D03*
D13*
%TO.P,SW1,2*%
%TO.N,Net-(C2-Pad2)*%
X105664000Y-102830000D03*
%TO.P,SW1,3*%
%TO.N,N/C*%
X105664000Y-105330000D03*
%TO.P,SW1,4*%
X102364000Y-100330000D03*
%TO.P,SW1,5*%
X102364000Y-102830000D03*
%TO.P,SW1,6*%
X102364000Y-105330000D03*
%TD*%
D12*
%TO.P,SW2,2*%
%TO.N,Net-(C1-Pad2)*%
X110998000Y-106100000D03*
%TO.P,SW2,1*%
%TO.N,Net-(C2-Pad2)*%
X110998000Y-101600000D03*
%TO.P,SW2,2*%
%TO.N,Net-(C1-Pad2)*%
X117498000Y-106100000D03*
%TO.P,SW2,1*%
%TO.N,Net-(C2-Pad2)*%
X117498000Y-101600000D03*
%TD*%
D16*
%TO.P,U1,1*%
%TO.N,Net-(C2-Pad2)*%
X121285000Y-74930000D03*
D23*
%TO.P,U1,5*%
%TO.N,Net-(U1-Pad5)*%
X128905000Y-67310000D03*
%TO.P,U1,2*%
%TO.N,Net-(C1-Pad1)*%
X123825000Y-74930000D03*
%TO.P,U1,6*%
%TO.N,Net-(C2-Pad1)*%
X126365000Y-67310000D03*
%TO.P,U1,3*%
%TO.N,Net-(R4-Pad1)*%
X126365000Y-74930000D03*
%TO.P,U1,7*%
%TO.N,Net-(C2-Pad1)*%
X123825000Y-67310000D03*
%TO.P,U1,4*%
%TO.N,+5V*%
X128905000Y-74930000D03*
%TO.P,U1,8*%
X121285000Y-67310000D03*
%TD*%
D24*
%TO.P,U2,1*%
%TO.N,Net-(J2-Pad1)*%
X134112000Y-69342000D03*
D25*
%TO.P,U2,2*%
%TO.N,Net-(R6-Pad1)*%
X134112000Y-71882000D03*
%TO.P,U2,3*%
%TO.N,Net-(K1-Pad14)*%
X134112000Y-74422000D03*
%TD*%
D26*
%TO.N,Net-(C2-Pad1)*%
X107950000Y-70612000D02*
X113538000Y-76200000D01*
X113538000Y-80772000D02*
X115316000Y-82550000D01*
X113538000Y-76200000D02*
X113538000Y-80772000D01*
X115316000Y-82550000D02*
X118364000Y-82550000D01*
%TO.N,Net-(C2-Pad2)*%
X121489001Y-83675001D02*
X121521001Y-83675001D01*
X120364000Y-82550000D02*
X121489001Y-83675001D01*
X121521001Y-83675001D02*
X123952000Y-86106000D01*
X141494000Y-82550000D02*
X142494000Y-82550000D01*
X137938000Y-86106000D02*
X141494000Y-82550000D01*
X123952000Y-86106000D02*
X137938000Y-86106000D01*
%TO.N,+5V*%
X128905000Y-74930000D02*
X121285000Y-67310000D01*
X117965001Y-97645001D02*
X124604999Y-97645001D01*
X116840000Y-96520000D02*
X117965001Y-97645001D01*
X124604999Y-97645001D02*
X128016000Y-94234000D01*
X132588000Y-94234000D02*
X134112000Y-95758000D01*
X128016000Y-94234000D02*
X132588000Y-94234000D01*
%TO.N,Net-(K1-Pad14)*%
X134112000Y-74422000D02*
X134112000Y-75438000D01*
X136652000Y-77978000D02*
X140716000Y-77978000D01*
X134112000Y-75438000D02*
X136652000Y-77978000D01*
X140716000Y-77978000D02*
X140462000Y-77978000D01*
X163830000Y-77978000D02*
X140716000Y-77978000D01*
%TO.N,Net-(J2-Pad1)*%
X162814000Y-94742000D02*
X164592000Y-92964000D01*
X151638000Y-94742000D02*
X162814000Y-94742000D01*
%TD*%
M02*
