%FSLAX45Y45*%
G04 Gerber Fmt 4.5, Leading zero omitted, Abs format (unit mm)*
G04 Created by KiCad (PCBNEW (5.1.10)-1) date 2021-10-13 19:13:32*
%MOMM*%
%LPD*%
G01*
G04 APERTURE LIST*
%TA.AperFunction,Profile*%
%ADD10C,0.050000*%
%TD*%
%ADD11C,0.200000*%
%ADD12C,0.300000*%
G04 APERTURE END LIST*
D10*
X17462500Y-6350000D02*
X9906000Y-6350000D01*
X17462500Y-11430000D02*
X17462500Y-6350000D01*
X9906000Y-11430000D02*
X17462500Y-11430000D01*
X9906000Y-6350000D02*
X9906000Y-11430000D01*
D11*
X13884200Y-9236000D02*
X13954200Y-9306000D01*
X13954200Y-9236000D02*
X13884200Y-9306000D01*
X13884200Y-9490000D02*
X13954200Y-9560000D01*
X13954200Y-9490000D02*
X13884200Y-9560000D01*
X13884200Y-10516000D02*
X13954200Y-10586000D01*
X13954200Y-10516000D02*
X13884200Y-10586000D01*
X13884200Y-10760000D02*
X13954200Y-10830000D01*
X13954200Y-10760000D02*
X13884200Y-10830000D01*
X14646200Y-9236000D02*
X14716200Y-9306000D01*
X14716200Y-9236000D02*
X14646200Y-9306000D01*
X14646200Y-9490000D02*
X14716200Y-9560000D01*
X14716200Y-9490000D02*
X14646200Y-9560000D01*
X14646200Y-10516000D02*
X14716200Y-10586000D01*
X14716200Y-10516000D02*
X14646200Y-10586000D01*
X14646200Y-10760000D02*
X14716200Y-10830000D01*
X14716200Y-10760000D02*
X14646200Y-10830000D01*
X14286900Y-8255000D02*
G75*
G03*
X14286900Y-8255000I-37500J0D01*
G01*
X14286900Y-8382000D02*
G75*
G03*
X14286900Y-8382000I-37500J0D01*
G01*
X14286900Y-8509000D02*
G75*
G03*
X14286900Y-8509000I-37500J0D01*
G01*
X11684000Y-8977000D02*
X11684000Y-9057000D01*
X11644000Y-9017000D02*
X11724000Y-9017000D01*
X11684000Y-9612000D02*
X11684000Y-9692000D01*
X11644000Y-9652000D02*
X11724000Y-9652000D01*
X11836400Y-8215000D02*
X11836400Y-8295000D01*
X11796400Y-8255000D02*
X11876400Y-8255000D01*
X12036400Y-8215000D02*
X12036400Y-8295000D01*
X11996400Y-8255000D02*
X12076400Y-8255000D01*
X12128500Y-6691000D02*
X12128500Y-6771000D01*
X12088500Y-6731000D02*
X12168500Y-6731000D01*
X12128500Y-7453000D02*
X12128500Y-7533000D01*
X12088500Y-7493000D02*
X12168500Y-7493000D01*
X12382500Y-6691000D02*
X12382500Y-6771000D01*
X12342500Y-6731000D02*
X12422500Y-6731000D01*
X12382500Y-7453000D02*
X12382500Y-7533000D01*
X12342500Y-7493000D02*
X12422500Y-7493000D01*
X12598400Y-8215000D02*
X12598400Y-8295000D01*
X12558400Y-8255000D02*
X12638400Y-8255000D01*
X12636500Y-6691000D02*
X12636500Y-6771000D01*
X12596500Y-6731000D02*
X12676500Y-6731000D01*
X12636500Y-7453000D02*
X12636500Y-7533000D01*
X12596500Y-7493000D02*
X12676500Y-7493000D01*
X12798400Y-8215000D02*
X12798400Y-8295000D01*
X12758400Y-8255000D02*
X12838400Y-8255000D01*
X12890500Y-6691000D02*
X12890500Y-6771000D01*
X12850500Y-6731000D02*
X12930500Y-6731000D01*
X12890500Y-7453000D02*
X12890500Y-7533000D01*
X12850500Y-7493000D02*
X12930500Y-7493000D01*
X12954000Y-8977000D02*
X12954000Y-9057000D01*
X12914000Y-9017000D02*
X12994000Y-9017000D01*
X12954000Y-9612000D02*
X12954000Y-9692000D01*
X12914000Y-9652000D02*
X12994000Y-9652000D01*
X13411200Y-7935600D02*
X13411200Y-8015600D01*
X13371200Y-7975600D02*
X13451200Y-7975600D01*
X13411200Y-9205600D02*
X13411200Y-9285600D01*
X13371200Y-9245600D02*
X13451200Y-9245600D01*
X13411200Y-9535800D02*
X13411200Y-9615800D01*
X13371200Y-9575800D02*
X13451200Y-9575800D01*
X13411200Y-10805800D02*
X13411200Y-10885800D01*
X13371200Y-10845800D02*
X13451200Y-10845800D01*
X15163800Y-8164200D02*
X15163800Y-8244200D01*
X15123800Y-8204200D02*
X15203800Y-8204200D01*
X15163800Y-9434200D02*
X15163800Y-9514200D01*
X15123800Y-9474200D02*
X15203800Y-9474200D01*
X10268220Y-10064820D02*
X10268220Y-10001180D01*
X10204580Y-10001180D01*
X10204580Y-10064820D01*
X10268220Y-10064820D01*
X10268220Y-10314820D02*
X10268220Y-10251180D01*
X10204580Y-10251180D01*
X10204580Y-10314820D01*
X10268220Y-10314820D01*
X10268220Y-10564820D02*
X10268220Y-10501180D01*
X10204580Y-10501180D01*
X10204580Y-10564820D01*
X10268220Y-10564820D01*
X10598220Y-10064820D02*
X10598220Y-10001180D01*
X10534580Y-10001180D01*
X10534580Y-10064820D01*
X10598220Y-10064820D01*
X10598220Y-10314820D02*
X10598220Y-10251180D01*
X10534580Y-10251180D01*
X10534580Y-10314820D01*
X10598220Y-10314820D01*
X10598220Y-10564820D02*
X10598220Y-10501180D01*
X10534580Y-10501180D01*
X10534580Y-10564820D01*
X10598220Y-10564820D01*
X12401620Y-10471220D02*
X12401620Y-10407580D01*
X12337980Y-10407580D01*
X12337980Y-10471220D01*
X12401620Y-10471220D01*
X12655620Y-10471220D02*
X12655620Y-10407580D01*
X12591980Y-10407580D01*
X12591980Y-10471220D01*
X12655620Y-10471220D01*
X16414820Y-7829620D02*
X16414820Y-7765980D01*
X16351180Y-7765980D01*
X16351180Y-7829620D01*
X16414820Y-7829620D01*
X16414820Y-8159620D02*
X16414820Y-8095980D01*
X16351180Y-8095980D01*
X16351180Y-8159620D01*
X16414820Y-8159620D01*
X16664820Y-7829620D02*
X16664820Y-7765980D01*
X16601180Y-7765980D01*
X16601180Y-7829620D01*
X16664820Y-7829620D01*
X16664820Y-8159620D02*
X16664820Y-8095980D01*
X16601180Y-8095980D01*
X16601180Y-8159620D01*
X16664820Y-8159620D01*
X16914820Y-7829620D02*
X16914820Y-7765980D01*
X16851180Y-7765980D01*
X16851180Y-7829620D01*
X16914820Y-7829620D01*
X16914820Y-8159620D02*
X16914820Y-8095980D01*
X16851180Y-8095980D01*
X16851180Y-8159620D01*
X16914820Y-8159620D01*
X11099800Y-10215000D02*
X11154800Y-10160000D01*
X11099800Y-10105000D01*
X11044800Y-10160000D01*
X11099800Y-10215000D01*
X11099800Y-10665000D02*
X11154800Y-10610000D01*
X11099800Y-10555000D01*
X11044800Y-10610000D01*
X11099800Y-10665000D01*
X11749800Y-10215000D02*
X11804800Y-10160000D01*
X11749800Y-10105000D01*
X11694800Y-10160000D01*
X11749800Y-10215000D01*
X11749800Y-10665000D02*
X11804800Y-10610000D01*
X11749800Y-10555000D01*
X11694800Y-10610000D01*
X11749800Y-10665000D01*
X13411200Y-6989200D02*
X13466200Y-6934200D01*
X13411200Y-6879200D01*
X13356200Y-6934200D01*
X13411200Y-6989200D01*
X13411200Y-7243200D02*
X13466200Y-7188200D01*
X13411200Y-7133200D01*
X13356200Y-7188200D01*
X13411200Y-7243200D01*
X13411200Y-7497200D02*
X13466200Y-7442200D01*
X13411200Y-7387200D01*
X13356200Y-7442200D01*
X13411200Y-7497200D01*
X16510000Y-10200000D02*
X16565000Y-10145000D01*
X16510000Y-10090000D01*
X16455000Y-10145000D01*
X16510000Y-10200000D01*
X16510000Y-10850000D02*
X16565000Y-10795000D01*
X16510000Y-10740000D01*
X16455000Y-10795000D01*
X16510000Y-10850000D01*
X16960000Y-10200000D02*
X17015000Y-10145000D01*
X16960000Y-10090000D01*
X16905000Y-10145000D01*
X16960000Y-10200000D01*
X16960000Y-10850000D02*
X17015000Y-10795000D01*
X16960000Y-10740000D01*
X16905000Y-10795000D01*
X16960000Y-10850000D01*
X10729000Y-6995200D02*
X10861000Y-7127200D01*
X10861000Y-6995200D02*
X10729000Y-7127200D01*
X10861000Y-7061200D02*
G75*
G03*
X10861000Y-7061200I-66000J0D01*
G01*
X10729000Y-7495200D02*
X10861000Y-7627200D01*
X10861000Y-7495200D02*
X10729000Y-7627200D01*
X10861000Y-7561200D02*
G75*
G03*
X10861000Y-7561200I-66000J0D01*
G01*
X10729000Y-8570000D02*
X10861000Y-8702000D01*
X10861000Y-8570000D02*
X10729000Y-8702000D01*
X10861000Y-8636000D02*
G75*
G03*
X10861000Y-8636000I-66000J0D01*
G01*
X10729000Y-9070000D02*
X10861000Y-9202000D01*
X10861000Y-9070000D02*
X10729000Y-9202000D01*
X10861000Y-9136000D02*
G75*
G03*
X10861000Y-9136000I-66000J0D01*
G01*
X15224800Y-10348000D02*
X15356800Y-10480000D01*
X15356800Y-10348000D02*
X15224800Y-10480000D01*
X15356800Y-10414000D02*
G75*
G03*
X15356800Y-10414000I-66000J0D01*
G01*
X15724800Y-10348000D02*
X15856800Y-10480000D01*
X15856800Y-10348000D02*
X15724800Y-10480000D01*
X15856800Y-10414000D02*
G75*
G03*
X15856800Y-10414000I-66000J0D01*
G01*
X16393200Y-8730400D02*
X16525200Y-8862400D01*
X16525200Y-8730400D02*
X16393200Y-8862400D01*
X16525200Y-8796400D02*
G75*
G03*
X16525200Y-8796400I-66000J0D01*
G01*
X16393200Y-9230400D02*
X16525200Y-9362400D01*
X16525200Y-9230400D02*
X16393200Y-9362400D01*
X16525200Y-9296400D02*
G75*
G03*
X16525200Y-9296400I-66000J0D01*
G01*
D12*
X10189928Y-11898214D02*
X10189928Y-11598214D01*
X10261357Y-11598214D01*
X10304214Y-11612500D01*
X10332786Y-11641071D01*
X10347071Y-11669643D01*
X10361357Y-11726786D01*
X10361357Y-11769643D01*
X10347071Y-11826786D01*
X10332786Y-11855357D01*
X10304214Y-11883929D01*
X10261357Y-11898214D01*
X10189928Y-11898214D01*
X10489928Y-11898214D02*
X10489928Y-11698214D01*
X10489928Y-11755357D02*
X10504214Y-11726786D01*
X10518500Y-11712500D01*
X10547071Y-11698214D01*
X10575643Y-11698214D01*
X10675643Y-11898214D02*
X10675643Y-11698214D01*
X10675643Y-11598214D02*
X10661357Y-11612500D01*
X10675643Y-11626786D01*
X10689928Y-11612500D01*
X10675643Y-11598214D01*
X10675643Y-11626786D01*
X10861357Y-11898214D02*
X10832786Y-11883929D01*
X10818500Y-11855357D01*
X10818500Y-11598214D01*
X11018500Y-11898214D02*
X10989928Y-11883929D01*
X10975643Y-11855357D01*
X10975643Y-11598214D01*
X11361357Y-11898214D02*
X11361357Y-11598214D01*
X11461357Y-11812500D01*
X11561357Y-11598214D01*
X11561357Y-11898214D01*
X11832786Y-11898214D02*
X11832786Y-11741071D01*
X11818500Y-11712500D01*
X11789928Y-11698214D01*
X11732786Y-11698214D01*
X11704214Y-11712500D01*
X11832786Y-11883929D02*
X11804214Y-11898214D01*
X11732786Y-11898214D01*
X11704214Y-11883929D01*
X11689928Y-11855357D01*
X11689928Y-11826786D01*
X11704214Y-11798214D01*
X11732786Y-11783929D01*
X11804214Y-11783929D01*
X11832786Y-11769643D01*
X11975643Y-11698214D02*
X11975643Y-11998214D01*
X11975643Y-11712500D02*
X12004214Y-11698214D01*
X12061357Y-11698214D01*
X12089928Y-11712500D01*
X12104214Y-11726786D01*
X12118500Y-11755357D01*
X12118500Y-11841071D01*
X12104214Y-11869643D01*
X12089928Y-11883929D01*
X12061357Y-11898214D01*
X12004214Y-11898214D01*
X11975643Y-11883929D01*
X12247071Y-11869643D02*
X12261357Y-11883929D01*
X12247071Y-11898214D01*
X12232786Y-11883929D01*
X12247071Y-11869643D01*
X12247071Y-11898214D01*
X12247071Y-11712500D02*
X12261357Y-11726786D01*
X12247071Y-11741071D01*
X12232786Y-11726786D01*
X12247071Y-11712500D01*
X12247071Y-11741071D01*
X9833500Y-12357500D02*
X9903500Y-12427500D01*
X9903500Y-12357500D02*
X9833500Y-12427500D01*
X10247071Y-12228214D02*
X10275643Y-12228214D01*
X10304214Y-12242500D01*
X10318500Y-12256786D01*
X10332786Y-12285357D01*
X10347071Y-12342500D01*
X10347071Y-12413929D01*
X10332786Y-12471071D01*
X10318500Y-12499643D01*
X10304214Y-12513929D01*
X10275643Y-12528214D01*
X10247071Y-12528214D01*
X10218500Y-12513929D01*
X10204214Y-12499643D01*
X10189928Y-12471071D01*
X10175643Y-12413929D01*
X10175643Y-12342500D01*
X10189928Y-12285357D01*
X10204214Y-12256786D01*
X10218500Y-12242500D01*
X10247071Y-12228214D01*
X10475643Y-12499643D02*
X10489928Y-12513929D01*
X10475643Y-12528214D01*
X10461357Y-12513929D01*
X10475643Y-12499643D01*
X10475643Y-12528214D01*
X10589928Y-12228214D02*
X10789928Y-12228214D01*
X10661357Y-12528214D01*
X10961357Y-12228214D02*
X10989928Y-12228214D01*
X11018500Y-12242500D01*
X11032786Y-12256786D01*
X11047071Y-12285357D01*
X11061357Y-12342500D01*
X11061357Y-12413929D01*
X11047071Y-12471071D01*
X11032786Y-12499643D01*
X11018500Y-12513929D01*
X10989928Y-12528214D01*
X10961357Y-12528214D01*
X10932786Y-12513929D01*
X10918500Y-12499643D01*
X10904214Y-12471071D01*
X10889928Y-12413929D01*
X10889928Y-12342500D01*
X10904214Y-12285357D01*
X10918500Y-12256786D01*
X10932786Y-12242500D01*
X10961357Y-12228214D01*
X11247071Y-12228214D02*
X11275643Y-12228214D01*
X11304214Y-12242500D01*
X11318500Y-12256786D01*
X11332786Y-12285357D01*
X11347071Y-12342500D01*
X11347071Y-12413929D01*
X11332786Y-12471071D01*
X11318500Y-12499643D01*
X11304214Y-12513929D01*
X11275643Y-12528214D01*
X11247071Y-12528214D01*
X11218500Y-12513929D01*
X11204214Y-12499643D01*
X11189928Y-12471071D01*
X11175643Y-12413929D01*
X11175643Y-12342500D01*
X11189928Y-12285357D01*
X11204214Y-12256786D01*
X11218500Y-12242500D01*
X11247071Y-12228214D01*
X11475643Y-12528214D02*
X11475643Y-12328214D01*
X11475643Y-12356786D02*
X11489928Y-12342500D01*
X11518500Y-12328214D01*
X11561357Y-12328214D01*
X11589928Y-12342500D01*
X11604214Y-12371071D01*
X11604214Y-12528214D01*
X11604214Y-12371071D02*
X11618500Y-12342500D01*
X11647071Y-12328214D01*
X11689928Y-12328214D01*
X11718500Y-12342500D01*
X11732786Y-12371071D01*
X11732786Y-12528214D01*
X11875643Y-12528214D02*
X11875643Y-12328214D01*
X11875643Y-12356786D02*
X11889928Y-12342500D01*
X11918500Y-12328214D01*
X11961357Y-12328214D01*
X11989928Y-12342500D01*
X12004214Y-12371071D01*
X12004214Y-12528214D01*
X12004214Y-12371071D02*
X12018500Y-12342500D01*
X12047071Y-12328214D01*
X12089928Y-12328214D01*
X12118500Y-12342500D01*
X12132786Y-12371071D01*
X12132786Y-12528214D01*
X12718500Y-12213929D02*
X12461357Y-12599643D01*
X13104214Y-12228214D02*
X13132786Y-12228214D01*
X13161357Y-12242500D01*
X13175643Y-12256786D01*
X13189928Y-12285357D01*
X13204214Y-12342500D01*
X13204214Y-12413929D01*
X13189928Y-12471071D01*
X13175643Y-12499643D01*
X13161357Y-12513929D01*
X13132786Y-12528214D01*
X13104214Y-12528214D01*
X13075643Y-12513929D01*
X13061357Y-12499643D01*
X13047071Y-12471071D01*
X13032786Y-12413929D01*
X13032786Y-12342500D01*
X13047071Y-12285357D01*
X13061357Y-12256786D01*
X13075643Y-12242500D01*
X13104214Y-12228214D01*
X13332786Y-12499643D02*
X13347071Y-12513929D01*
X13332786Y-12528214D01*
X13318500Y-12513929D01*
X13332786Y-12499643D01*
X13332786Y-12528214D01*
X13532786Y-12228214D02*
X13561357Y-12228214D01*
X13589928Y-12242500D01*
X13604214Y-12256786D01*
X13618500Y-12285357D01*
X13632786Y-12342500D01*
X13632786Y-12413929D01*
X13618500Y-12471071D01*
X13604214Y-12499643D01*
X13589928Y-12513929D01*
X13561357Y-12528214D01*
X13532786Y-12528214D01*
X13504214Y-12513929D01*
X13489928Y-12499643D01*
X13475643Y-12471071D01*
X13461357Y-12413929D01*
X13461357Y-12342500D01*
X13475643Y-12285357D01*
X13489928Y-12256786D01*
X13504214Y-12242500D01*
X13532786Y-12228214D01*
X13747071Y-12256786D02*
X13761357Y-12242500D01*
X13789928Y-12228214D01*
X13861357Y-12228214D01*
X13889928Y-12242500D01*
X13904214Y-12256786D01*
X13918500Y-12285357D01*
X13918500Y-12313929D01*
X13904214Y-12356786D01*
X13732786Y-12528214D01*
X13918500Y-12528214D01*
X14018500Y-12228214D02*
X14218500Y-12228214D01*
X14089928Y-12528214D01*
X14461357Y-12228214D02*
X14404214Y-12228214D01*
X14375643Y-12242500D01*
X14361357Y-12256786D01*
X14332786Y-12299643D01*
X14318500Y-12356786D01*
X14318500Y-12471071D01*
X14332786Y-12499643D01*
X14347071Y-12513929D01*
X14375643Y-12528214D01*
X14432786Y-12528214D01*
X14461357Y-12513929D01*
X14475643Y-12499643D01*
X14489928Y-12471071D01*
X14489928Y-12399643D01*
X14475643Y-12371071D01*
X14461357Y-12356786D01*
X14432786Y-12342500D01*
X14375643Y-12342500D01*
X14347071Y-12356786D01*
X14332786Y-12371071D01*
X14318500Y-12399643D01*
X14604214Y-12228214D02*
X14604214Y-12285357D01*
X14718500Y-12228214D02*
X14718500Y-12285357D01*
X15161357Y-12642500D02*
X15147071Y-12628214D01*
X15118500Y-12585357D01*
X15104214Y-12556786D01*
X15089928Y-12513929D01*
X15075643Y-12442500D01*
X15075643Y-12385357D01*
X15089928Y-12313929D01*
X15104214Y-12271071D01*
X15118500Y-12242500D01*
X15147071Y-12199643D01*
X15161357Y-12185357D01*
X15318500Y-12356786D02*
X15289928Y-12342500D01*
X15275643Y-12328214D01*
X15261357Y-12299643D01*
X15261357Y-12285357D01*
X15275643Y-12256786D01*
X15289928Y-12242500D01*
X15318500Y-12228214D01*
X15375643Y-12228214D01*
X15404214Y-12242500D01*
X15418500Y-12256786D01*
X15432786Y-12285357D01*
X15432786Y-12299643D01*
X15418500Y-12328214D01*
X15404214Y-12342500D01*
X15375643Y-12356786D01*
X15318500Y-12356786D01*
X15289928Y-12371071D01*
X15275643Y-12385357D01*
X15261357Y-12413929D01*
X15261357Y-12471071D01*
X15275643Y-12499643D01*
X15289928Y-12513929D01*
X15318500Y-12528214D01*
X15375643Y-12528214D01*
X15404214Y-12513929D01*
X15418500Y-12499643D01*
X15432786Y-12471071D01*
X15432786Y-12413929D01*
X15418500Y-12385357D01*
X15404214Y-12371071D01*
X15375643Y-12356786D01*
X15789928Y-12528214D02*
X15789928Y-12228214D01*
X15918500Y-12528214D02*
X15918500Y-12371071D01*
X15904214Y-12342500D01*
X15875643Y-12328214D01*
X15832786Y-12328214D01*
X15804214Y-12342500D01*
X15789928Y-12356786D01*
X16104214Y-12528214D02*
X16075643Y-12513929D01*
X16061357Y-12499643D01*
X16047071Y-12471071D01*
X16047071Y-12385357D01*
X16061357Y-12356786D01*
X16075643Y-12342500D01*
X16104214Y-12328214D01*
X16147071Y-12328214D01*
X16175643Y-12342500D01*
X16189928Y-12356786D01*
X16204214Y-12385357D01*
X16204214Y-12471071D01*
X16189928Y-12499643D01*
X16175643Y-12513929D01*
X16147071Y-12528214D01*
X16104214Y-12528214D01*
X16375643Y-12528214D02*
X16347071Y-12513929D01*
X16332786Y-12485357D01*
X16332786Y-12228214D01*
X16604214Y-12513929D02*
X16575643Y-12528214D01*
X16518500Y-12528214D01*
X16489928Y-12513929D01*
X16475643Y-12485357D01*
X16475643Y-12371071D01*
X16489928Y-12342500D01*
X16518500Y-12328214D01*
X16575643Y-12328214D01*
X16604214Y-12342500D01*
X16618500Y-12371071D01*
X16618500Y-12399643D01*
X16475643Y-12428214D01*
X16732786Y-12513929D02*
X16761357Y-12528214D01*
X16818500Y-12528214D01*
X16847071Y-12513929D01*
X16861357Y-12485357D01*
X16861357Y-12471071D01*
X16847071Y-12442500D01*
X16818500Y-12428214D01*
X16775643Y-12428214D01*
X16747071Y-12413929D01*
X16732786Y-12385357D01*
X16732786Y-12371071D01*
X16747071Y-12342500D01*
X16775643Y-12328214D01*
X16818500Y-12328214D01*
X16847071Y-12342500D01*
X16961357Y-12642500D02*
X16975643Y-12628214D01*
X17004214Y-12585357D01*
X17018500Y-12556786D01*
X17032786Y-12513929D01*
X17047071Y-12442500D01*
X17047071Y-12385357D01*
X17032786Y-12313929D01*
X17018500Y-12271071D01*
X17004214Y-12242500D01*
X16975643Y-12199643D01*
X16961357Y-12185357D01*
X9903500Y-12788500D02*
G75*
G03*
X9903500Y-12788500I-37500J0D01*
G01*
X10247071Y-12624214D02*
X10275643Y-12624214D01*
X10304214Y-12638500D01*
X10318500Y-12652786D01*
X10332786Y-12681357D01*
X10347071Y-12738500D01*
X10347071Y-12809929D01*
X10332786Y-12867071D01*
X10318500Y-12895643D01*
X10304214Y-12909929D01*
X10275643Y-12924214D01*
X10247071Y-12924214D01*
X10218500Y-12909929D01*
X10204214Y-12895643D01*
X10189928Y-12867071D01*
X10175643Y-12809929D01*
X10175643Y-12738500D01*
X10189928Y-12681357D01*
X10204214Y-12652786D01*
X10218500Y-12638500D01*
X10247071Y-12624214D01*
X10475643Y-12895643D02*
X10489928Y-12909929D01*
X10475643Y-12924214D01*
X10461357Y-12909929D01*
X10475643Y-12895643D01*
X10475643Y-12924214D01*
X10589928Y-12624214D02*
X10789928Y-12624214D01*
X10661357Y-12924214D01*
X11047071Y-12624214D02*
X10904214Y-12624214D01*
X10889928Y-12767071D01*
X10904214Y-12752786D01*
X10932786Y-12738500D01*
X11004214Y-12738500D01*
X11032786Y-12752786D01*
X11047071Y-12767071D01*
X11061357Y-12795643D01*
X11061357Y-12867071D01*
X11047071Y-12895643D01*
X11032786Y-12909929D01*
X11004214Y-12924214D01*
X10932786Y-12924214D01*
X10904214Y-12909929D01*
X10889928Y-12895643D01*
X11247071Y-12624214D02*
X11275643Y-12624214D01*
X11304214Y-12638500D01*
X11318500Y-12652786D01*
X11332786Y-12681357D01*
X11347071Y-12738500D01*
X11347071Y-12809929D01*
X11332786Y-12867071D01*
X11318500Y-12895643D01*
X11304214Y-12909929D01*
X11275643Y-12924214D01*
X11247071Y-12924214D01*
X11218500Y-12909929D01*
X11204214Y-12895643D01*
X11189928Y-12867071D01*
X11175643Y-12809929D01*
X11175643Y-12738500D01*
X11189928Y-12681357D01*
X11204214Y-12652786D01*
X11218500Y-12638500D01*
X11247071Y-12624214D01*
X11475643Y-12924214D02*
X11475643Y-12724214D01*
X11475643Y-12752786D02*
X11489928Y-12738500D01*
X11518500Y-12724214D01*
X11561357Y-12724214D01*
X11589928Y-12738500D01*
X11604214Y-12767071D01*
X11604214Y-12924214D01*
X11604214Y-12767071D02*
X11618500Y-12738500D01*
X11647071Y-12724214D01*
X11689928Y-12724214D01*
X11718500Y-12738500D01*
X11732786Y-12767071D01*
X11732786Y-12924214D01*
X11875643Y-12924214D02*
X11875643Y-12724214D01*
X11875643Y-12752786D02*
X11889928Y-12738500D01*
X11918500Y-12724214D01*
X11961357Y-12724214D01*
X11989928Y-12738500D01*
X12004214Y-12767071D01*
X12004214Y-12924214D01*
X12004214Y-12767071D02*
X12018500Y-12738500D01*
X12047071Y-12724214D01*
X12089928Y-12724214D01*
X12118500Y-12738500D01*
X12132786Y-12767071D01*
X12132786Y-12924214D01*
X12718500Y-12609929D02*
X12461357Y-12995643D01*
X13104214Y-12624214D02*
X13132786Y-12624214D01*
X13161357Y-12638500D01*
X13175643Y-12652786D01*
X13189928Y-12681357D01*
X13204214Y-12738500D01*
X13204214Y-12809929D01*
X13189928Y-12867071D01*
X13175643Y-12895643D01*
X13161357Y-12909929D01*
X13132786Y-12924214D01*
X13104214Y-12924214D01*
X13075643Y-12909929D01*
X13061357Y-12895643D01*
X13047071Y-12867071D01*
X13032786Y-12809929D01*
X13032786Y-12738500D01*
X13047071Y-12681357D01*
X13061357Y-12652786D01*
X13075643Y-12638500D01*
X13104214Y-12624214D01*
X13332786Y-12895643D02*
X13347071Y-12909929D01*
X13332786Y-12924214D01*
X13318500Y-12909929D01*
X13332786Y-12895643D01*
X13332786Y-12924214D01*
X13532786Y-12624214D02*
X13561357Y-12624214D01*
X13589928Y-12638500D01*
X13604214Y-12652786D01*
X13618500Y-12681357D01*
X13632786Y-12738500D01*
X13632786Y-12809929D01*
X13618500Y-12867071D01*
X13604214Y-12895643D01*
X13589928Y-12909929D01*
X13561357Y-12924214D01*
X13532786Y-12924214D01*
X13504214Y-12909929D01*
X13489928Y-12895643D01*
X13475643Y-12867071D01*
X13461357Y-12809929D01*
X13461357Y-12738500D01*
X13475643Y-12681357D01*
X13489928Y-12652786D01*
X13504214Y-12638500D01*
X13532786Y-12624214D01*
X13747071Y-12652786D02*
X13761357Y-12638500D01*
X13789928Y-12624214D01*
X13861357Y-12624214D01*
X13889928Y-12638500D01*
X13904214Y-12652786D01*
X13918500Y-12681357D01*
X13918500Y-12709929D01*
X13904214Y-12752786D01*
X13732786Y-12924214D01*
X13918500Y-12924214D01*
X14061357Y-12924214D02*
X14118500Y-12924214D01*
X14147071Y-12909929D01*
X14161357Y-12895643D01*
X14189928Y-12852786D01*
X14204214Y-12795643D01*
X14204214Y-12681357D01*
X14189928Y-12652786D01*
X14175643Y-12638500D01*
X14147071Y-12624214D01*
X14089928Y-12624214D01*
X14061357Y-12638500D01*
X14047071Y-12652786D01*
X14032786Y-12681357D01*
X14032786Y-12752786D01*
X14047071Y-12781357D01*
X14061357Y-12795643D01*
X14089928Y-12809929D01*
X14147071Y-12809929D01*
X14175643Y-12795643D01*
X14189928Y-12781357D01*
X14204214Y-12752786D01*
X14475643Y-12624214D02*
X14332786Y-12624214D01*
X14318500Y-12767071D01*
X14332786Y-12752786D01*
X14361357Y-12738500D01*
X14432786Y-12738500D01*
X14461357Y-12752786D01*
X14475643Y-12767071D01*
X14489928Y-12795643D01*
X14489928Y-12867071D01*
X14475643Y-12895643D01*
X14461357Y-12909929D01*
X14432786Y-12924214D01*
X14361357Y-12924214D01*
X14332786Y-12909929D01*
X14318500Y-12895643D01*
X14604214Y-12624214D02*
X14604214Y-12681357D01*
X14718500Y-12624214D02*
X14718500Y-12681357D01*
X15161357Y-13038500D02*
X15147071Y-13024214D01*
X15118500Y-12981357D01*
X15104214Y-12952786D01*
X15089928Y-12909929D01*
X15075643Y-12838500D01*
X15075643Y-12781357D01*
X15089928Y-12709929D01*
X15104214Y-12667071D01*
X15118500Y-12638500D01*
X15147071Y-12595643D01*
X15161357Y-12581357D01*
X15247071Y-12624214D02*
X15432786Y-12624214D01*
X15332786Y-12738500D01*
X15375643Y-12738500D01*
X15404214Y-12752786D01*
X15418500Y-12767071D01*
X15432786Y-12795643D01*
X15432786Y-12867071D01*
X15418500Y-12895643D01*
X15404214Y-12909929D01*
X15375643Y-12924214D01*
X15289928Y-12924214D01*
X15261357Y-12909929D01*
X15247071Y-12895643D01*
X15789928Y-12924214D02*
X15789928Y-12624214D01*
X15918500Y-12924214D02*
X15918500Y-12767071D01*
X15904214Y-12738500D01*
X15875643Y-12724214D01*
X15832786Y-12724214D01*
X15804214Y-12738500D01*
X15789928Y-12752786D01*
X16104214Y-12924214D02*
X16075643Y-12909929D01*
X16061357Y-12895643D01*
X16047071Y-12867071D01*
X16047071Y-12781357D01*
X16061357Y-12752786D01*
X16075643Y-12738500D01*
X16104214Y-12724214D01*
X16147071Y-12724214D01*
X16175643Y-12738500D01*
X16189928Y-12752786D01*
X16204214Y-12781357D01*
X16204214Y-12867071D01*
X16189928Y-12895643D01*
X16175643Y-12909929D01*
X16147071Y-12924214D01*
X16104214Y-12924214D01*
X16375643Y-12924214D02*
X16347071Y-12909929D01*
X16332786Y-12881357D01*
X16332786Y-12624214D01*
X16604214Y-12909929D02*
X16575643Y-12924214D01*
X16518500Y-12924214D01*
X16489928Y-12909929D01*
X16475643Y-12881357D01*
X16475643Y-12767071D01*
X16489928Y-12738500D01*
X16518500Y-12724214D01*
X16575643Y-12724214D01*
X16604214Y-12738500D01*
X16618500Y-12767071D01*
X16618500Y-12795643D01*
X16475643Y-12824214D01*
X16732786Y-12909929D02*
X16761357Y-12924214D01*
X16818500Y-12924214D01*
X16847071Y-12909929D01*
X16861357Y-12881357D01*
X16861357Y-12867071D01*
X16847071Y-12838500D01*
X16818500Y-12824214D01*
X16775643Y-12824214D01*
X16747071Y-12809929D01*
X16732786Y-12781357D01*
X16732786Y-12767071D01*
X16747071Y-12738500D01*
X16775643Y-12724214D01*
X16818500Y-12724214D01*
X16847071Y-12738500D01*
X16961357Y-13038500D02*
X16975643Y-13024214D01*
X17004214Y-12981357D01*
X17018500Y-12952786D01*
X17032786Y-12909929D01*
X17047071Y-12838500D01*
X17047071Y-12781357D01*
X17032786Y-12709929D01*
X17018500Y-12667071D01*
X17004214Y-12638500D01*
X16975643Y-12595643D01*
X16961357Y-12581357D01*
X9863500Y-13144500D02*
X9863500Y-13224500D01*
X9823500Y-13184500D02*
X9903500Y-13184500D01*
X10247071Y-13020214D02*
X10275643Y-13020214D01*
X10304214Y-13034500D01*
X10318500Y-13048786D01*
X10332786Y-13077357D01*
X10347071Y-13134500D01*
X10347071Y-13205929D01*
X10332786Y-13263071D01*
X10318500Y-13291643D01*
X10304214Y-13305929D01*
X10275643Y-13320214D01*
X10247071Y-13320214D01*
X10218500Y-13305929D01*
X10204214Y-13291643D01*
X10189928Y-13263071D01*
X10175643Y-13205929D01*
X10175643Y-13134500D01*
X10189928Y-13077357D01*
X10204214Y-13048786D01*
X10218500Y-13034500D01*
X10247071Y-13020214D01*
X10475643Y-13291643D02*
X10489928Y-13305929D01*
X10475643Y-13320214D01*
X10461357Y-13305929D01*
X10475643Y-13291643D01*
X10475643Y-13320214D01*
X10661357Y-13148786D02*
X10632786Y-13134500D01*
X10618500Y-13120214D01*
X10604214Y-13091643D01*
X10604214Y-13077357D01*
X10618500Y-13048786D01*
X10632786Y-13034500D01*
X10661357Y-13020214D01*
X10718500Y-13020214D01*
X10747071Y-13034500D01*
X10761357Y-13048786D01*
X10775643Y-13077357D01*
X10775643Y-13091643D01*
X10761357Y-13120214D01*
X10747071Y-13134500D01*
X10718500Y-13148786D01*
X10661357Y-13148786D01*
X10632786Y-13163071D01*
X10618500Y-13177357D01*
X10604214Y-13205929D01*
X10604214Y-13263071D01*
X10618500Y-13291643D01*
X10632786Y-13305929D01*
X10661357Y-13320214D01*
X10718500Y-13320214D01*
X10747071Y-13305929D01*
X10761357Y-13291643D01*
X10775643Y-13263071D01*
X10775643Y-13205929D01*
X10761357Y-13177357D01*
X10747071Y-13163071D01*
X10718500Y-13148786D01*
X10961357Y-13020214D02*
X10989928Y-13020214D01*
X11018500Y-13034500D01*
X11032786Y-13048786D01*
X11047071Y-13077357D01*
X11061357Y-13134500D01*
X11061357Y-13205929D01*
X11047071Y-13263071D01*
X11032786Y-13291643D01*
X11018500Y-13305929D01*
X10989928Y-13320214D01*
X10961357Y-13320214D01*
X10932786Y-13305929D01*
X10918500Y-13291643D01*
X10904214Y-13263071D01*
X10889928Y-13205929D01*
X10889928Y-13134500D01*
X10904214Y-13077357D01*
X10918500Y-13048786D01*
X10932786Y-13034500D01*
X10961357Y-13020214D01*
X11247071Y-13020214D02*
X11275643Y-13020214D01*
X11304214Y-13034500D01*
X11318500Y-13048786D01*
X11332786Y-13077357D01*
X11347071Y-13134500D01*
X11347071Y-13205929D01*
X11332786Y-13263071D01*
X11318500Y-13291643D01*
X11304214Y-13305929D01*
X11275643Y-13320214D01*
X11247071Y-13320214D01*
X11218500Y-13305929D01*
X11204214Y-13291643D01*
X11189928Y-13263071D01*
X11175643Y-13205929D01*
X11175643Y-13134500D01*
X11189928Y-13077357D01*
X11204214Y-13048786D01*
X11218500Y-13034500D01*
X11247071Y-13020214D01*
X11475643Y-13320214D02*
X11475643Y-13120214D01*
X11475643Y-13148786D02*
X11489928Y-13134500D01*
X11518500Y-13120214D01*
X11561357Y-13120214D01*
X11589928Y-13134500D01*
X11604214Y-13163071D01*
X11604214Y-13320214D01*
X11604214Y-13163071D02*
X11618500Y-13134500D01*
X11647071Y-13120214D01*
X11689928Y-13120214D01*
X11718500Y-13134500D01*
X11732786Y-13163071D01*
X11732786Y-13320214D01*
X11875643Y-13320214D02*
X11875643Y-13120214D01*
X11875643Y-13148786D02*
X11889928Y-13134500D01*
X11918500Y-13120214D01*
X11961357Y-13120214D01*
X11989928Y-13134500D01*
X12004214Y-13163071D01*
X12004214Y-13320214D01*
X12004214Y-13163071D02*
X12018500Y-13134500D01*
X12047071Y-13120214D01*
X12089928Y-13120214D01*
X12118500Y-13134500D01*
X12132786Y-13163071D01*
X12132786Y-13320214D01*
X12718500Y-13005929D02*
X12461357Y-13391643D01*
X13104214Y-13020214D02*
X13132786Y-13020214D01*
X13161357Y-13034500D01*
X13175643Y-13048786D01*
X13189928Y-13077357D01*
X13204214Y-13134500D01*
X13204214Y-13205929D01*
X13189928Y-13263071D01*
X13175643Y-13291643D01*
X13161357Y-13305929D01*
X13132786Y-13320214D01*
X13104214Y-13320214D01*
X13075643Y-13305929D01*
X13061357Y-13291643D01*
X13047071Y-13263071D01*
X13032786Y-13205929D01*
X13032786Y-13134500D01*
X13047071Y-13077357D01*
X13061357Y-13048786D01*
X13075643Y-13034500D01*
X13104214Y-13020214D01*
X13332786Y-13291643D02*
X13347071Y-13305929D01*
X13332786Y-13320214D01*
X13318500Y-13305929D01*
X13332786Y-13291643D01*
X13332786Y-13320214D01*
X13532786Y-13020214D02*
X13561357Y-13020214D01*
X13589928Y-13034500D01*
X13604214Y-13048786D01*
X13618500Y-13077357D01*
X13632786Y-13134500D01*
X13632786Y-13205929D01*
X13618500Y-13263071D01*
X13604214Y-13291643D01*
X13589928Y-13305929D01*
X13561357Y-13320214D01*
X13532786Y-13320214D01*
X13504214Y-13305929D01*
X13489928Y-13291643D01*
X13475643Y-13263071D01*
X13461357Y-13205929D01*
X13461357Y-13134500D01*
X13475643Y-13077357D01*
X13489928Y-13048786D01*
X13504214Y-13034500D01*
X13532786Y-13020214D01*
X13732786Y-13020214D02*
X13918500Y-13020214D01*
X13818500Y-13134500D01*
X13861357Y-13134500D01*
X13889928Y-13148786D01*
X13904214Y-13163071D01*
X13918500Y-13191643D01*
X13918500Y-13263071D01*
X13904214Y-13291643D01*
X13889928Y-13305929D01*
X13861357Y-13320214D01*
X13775643Y-13320214D01*
X13747071Y-13305929D01*
X13732786Y-13291643D01*
X14204214Y-13320214D02*
X14032786Y-13320214D01*
X14118500Y-13320214D02*
X14118500Y-13020214D01*
X14089928Y-13063071D01*
X14061357Y-13091643D01*
X14032786Y-13105929D01*
X14475643Y-13020214D02*
X14332786Y-13020214D01*
X14318500Y-13163071D01*
X14332786Y-13148786D01*
X14361357Y-13134500D01*
X14432786Y-13134500D01*
X14461357Y-13148786D01*
X14475643Y-13163071D01*
X14489928Y-13191643D01*
X14489928Y-13263071D01*
X14475643Y-13291643D01*
X14461357Y-13305929D01*
X14432786Y-13320214D01*
X14361357Y-13320214D01*
X14332786Y-13305929D01*
X14318500Y-13291643D01*
X14604214Y-13020214D02*
X14604214Y-13077357D01*
X14718500Y-13020214D02*
X14718500Y-13077357D01*
X15161357Y-13434500D02*
X15147071Y-13420214D01*
X15118500Y-13377357D01*
X15104214Y-13348786D01*
X15089928Y-13305929D01*
X15075643Y-13234500D01*
X15075643Y-13177357D01*
X15089928Y-13105929D01*
X15104214Y-13063071D01*
X15118500Y-13034500D01*
X15147071Y-12991643D01*
X15161357Y-12977357D01*
X15261357Y-13048786D02*
X15275643Y-13034500D01*
X15304214Y-13020214D01*
X15375643Y-13020214D01*
X15404214Y-13034500D01*
X15418500Y-13048786D01*
X15432786Y-13077357D01*
X15432786Y-13105929D01*
X15418500Y-13148786D01*
X15247071Y-13320214D01*
X15432786Y-13320214D01*
X15547071Y-13048786D02*
X15561357Y-13034500D01*
X15589928Y-13020214D01*
X15661357Y-13020214D01*
X15689928Y-13034500D01*
X15704214Y-13048786D01*
X15718500Y-13077357D01*
X15718500Y-13105929D01*
X15704214Y-13148786D01*
X15532786Y-13320214D01*
X15718500Y-13320214D01*
X16075643Y-13320214D02*
X16075643Y-13020214D01*
X16204214Y-13320214D02*
X16204214Y-13163071D01*
X16189928Y-13134500D01*
X16161357Y-13120214D01*
X16118500Y-13120214D01*
X16089928Y-13134500D01*
X16075643Y-13148786D01*
X16389928Y-13320214D02*
X16361357Y-13305929D01*
X16347071Y-13291643D01*
X16332786Y-13263071D01*
X16332786Y-13177357D01*
X16347071Y-13148786D01*
X16361357Y-13134500D01*
X16389928Y-13120214D01*
X16432786Y-13120214D01*
X16461357Y-13134500D01*
X16475643Y-13148786D01*
X16489928Y-13177357D01*
X16489928Y-13263071D01*
X16475643Y-13291643D01*
X16461357Y-13305929D01*
X16432786Y-13320214D01*
X16389928Y-13320214D01*
X16661357Y-13320214D02*
X16632786Y-13305929D01*
X16618500Y-13277357D01*
X16618500Y-13020214D01*
X16889928Y-13305929D02*
X16861357Y-13320214D01*
X16804214Y-13320214D01*
X16775643Y-13305929D01*
X16761357Y-13277357D01*
X16761357Y-13163071D01*
X16775643Y-13134500D01*
X16804214Y-13120214D01*
X16861357Y-13120214D01*
X16889928Y-13134500D01*
X16904214Y-13163071D01*
X16904214Y-13191643D01*
X16761357Y-13220214D01*
X17018500Y-13305929D02*
X17047071Y-13320214D01*
X17104214Y-13320214D01*
X17132786Y-13305929D01*
X17147071Y-13277357D01*
X17147071Y-13263071D01*
X17132786Y-13234500D01*
X17104214Y-13220214D01*
X17061357Y-13220214D01*
X17032786Y-13205929D01*
X17018500Y-13177357D01*
X17018500Y-13163071D01*
X17032786Y-13134500D01*
X17061357Y-13120214D01*
X17104214Y-13120214D01*
X17132786Y-13134500D01*
X17247071Y-13434500D02*
X17261357Y-13420214D01*
X17289928Y-13377357D01*
X17304214Y-13348786D01*
X17318500Y-13305929D01*
X17332786Y-13234500D01*
X17332786Y-13177357D01*
X17318500Y-13105929D01*
X17304214Y-13063071D01*
X17289928Y-13034500D01*
X17261357Y-12991643D01*
X17247071Y-12977357D01*
X9890320Y-13612320D02*
X9890320Y-13548680D01*
X9826680Y-13548680D01*
X9826680Y-13612320D01*
X9890320Y-13612320D01*
X10247071Y-13416214D02*
X10275643Y-13416214D01*
X10304214Y-13430500D01*
X10318500Y-13444786D01*
X10332786Y-13473357D01*
X10347071Y-13530500D01*
X10347071Y-13601929D01*
X10332786Y-13659071D01*
X10318500Y-13687643D01*
X10304214Y-13701929D01*
X10275643Y-13716214D01*
X10247071Y-13716214D01*
X10218500Y-13701929D01*
X10204214Y-13687643D01*
X10189928Y-13659071D01*
X10175643Y-13601929D01*
X10175643Y-13530500D01*
X10189928Y-13473357D01*
X10204214Y-13444786D01*
X10218500Y-13430500D01*
X10247071Y-13416214D01*
X10475643Y-13687643D02*
X10489928Y-13701929D01*
X10475643Y-13716214D01*
X10461357Y-13701929D01*
X10475643Y-13687643D01*
X10475643Y-13716214D01*
X10632786Y-13716214D02*
X10689928Y-13716214D01*
X10718500Y-13701929D01*
X10732786Y-13687643D01*
X10761357Y-13644786D01*
X10775643Y-13587643D01*
X10775643Y-13473357D01*
X10761357Y-13444786D01*
X10747071Y-13430500D01*
X10718500Y-13416214D01*
X10661357Y-13416214D01*
X10632786Y-13430500D01*
X10618500Y-13444786D01*
X10604214Y-13473357D01*
X10604214Y-13544786D01*
X10618500Y-13573357D01*
X10632786Y-13587643D01*
X10661357Y-13601929D01*
X10718500Y-13601929D01*
X10747071Y-13587643D01*
X10761357Y-13573357D01*
X10775643Y-13544786D01*
X10961357Y-13416214D02*
X10989928Y-13416214D01*
X11018500Y-13430500D01*
X11032786Y-13444786D01*
X11047071Y-13473357D01*
X11061357Y-13530500D01*
X11061357Y-13601929D01*
X11047071Y-13659071D01*
X11032786Y-13687643D01*
X11018500Y-13701929D01*
X10989928Y-13716214D01*
X10961357Y-13716214D01*
X10932786Y-13701929D01*
X10918500Y-13687643D01*
X10904214Y-13659071D01*
X10889928Y-13601929D01*
X10889928Y-13530500D01*
X10904214Y-13473357D01*
X10918500Y-13444786D01*
X10932786Y-13430500D01*
X10961357Y-13416214D01*
X11247071Y-13416214D02*
X11275643Y-13416214D01*
X11304214Y-13430500D01*
X11318500Y-13444786D01*
X11332786Y-13473357D01*
X11347071Y-13530500D01*
X11347071Y-13601929D01*
X11332786Y-13659071D01*
X11318500Y-13687643D01*
X11304214Y-13701929D01*
X11275643Y-13716214D01*
X11247071Y-13716214D01*
X11218500Y-13701929D01*
X11204214Y-13687643D01*
X11189928Y-13659071D01*
X11175643Y-13601929D01*
X11175643Y-13530500D01*
X11189928Y-13473357D01*
X11204214Y-13444786D01*
X11218500Y-13430500D01*
X11247071Y-13416214D01*
X11475643Y-13716214D02*
X11475643Y-13516214D01*
X11475643Y-13544786D02*
X11489928Y-13530500D01*
X11518500Y-13516214D01*
X11561357Y-13516214D01*
X11589928Y-13530500D01*
X11604214Y-13559071D01*
X11604214Y-13716214D01*
X11604214Y-13559071D02*
X11618500Y-13530500D01*
X11647071Y-13516214D01*
X11689928Y-13516214D01*
X11718500Y-13530500D01*
X11732786Y-13559071D01*
X11732786Y-13716214D01*
X11875643Y-13716214D02*
X11875643Y-13516214D01*
X11875643Y-13544786D02*
X11889928Y-13530500D01*
X11918500Y-13516214D01*
X11961357Y-13516214D01*
X11989928Y-13530500D01*
X12004214Y-13559071D01*
X12004214Y-13716214D01*
X12004214Y-13559071D02*
X12018500Y-13530500D01*
X12047071Y-13516214D01*
X12089928Y-13516214D01*
X12118500Y-13530500D01*
X12132786Y-13559071D01*
X12132786Y-13716214D01*
X12718500Y-13401929D02*
X12461357Y-13787643D01*
X13104214Y-13416214D02*
X13132786Y-13416214D01*
X13161357Y-13430500D01*
X13175643Y-13444786D01*
X13189928Y-13473357D01*
X13204214Y-13530500D01*
X13204214Y-13601929D01*
X13189928Y-13659071D01*
X13175643Y-13687643D01*
X13161357Y-13701929D01*
X13132786Y-13716214D01*
X13104214Y-13716214D01*
X13075643Y-13701929D01*
X13061357Y-13687643D01*
X13047071Y-13659071D01*
X13032786Y-13601929D01*
X13032786Y-13530500D01*
X13047071Y-13473357D01*
X13061357Y-13444786D01*
X13075643Y-13430500D01*
X13104214Y-13416214D01*
X13332786Y-13687643D02*
X13347071Y-13701929D01*
X13332786Y-13716214D01*
X13318500Y-13701929D01*
X13332786Y-13687643D01*
X13332786Y-13716214D01*
X13532786Y-13416214D02*
X13561357Y-13416214D01*
X13589928Y-13430500D01*
X13604214Y-13444786D01*
X13618500Y-13473357D01*
X13632786Y-13530500D01*
X13632786Y-13601929D01*
X13618500Y-13659071D01*
X13604214Y-13687643D01*
X13589928Y-13701929D01*
X13561357Y-13716214D01*
X13532786Y-13716214D01*
X13504214Y-13701929D01*
X13489928Y-13687643D01*
X13475643Y-13659071D01*
X13461357Y-13601929D01*
X13461357Y-13530500D01*
X13475643Y-13473357D01*
X13489928Y-13444786D01*
X13504214Y-13430500D01*
X13532786Y-13416214D01*
X13732786Y-13416214D02*
X13918500Y-13416214D01*
X13818500Y-13530500D01*
X13861357Y-13530500D01*
X13889928Y-13544786D01*
X13904214Y-13559071D01*
X13918500Y-13587643D01*
X13918500Y-13659071D01*
X13904214Y-13687643D01*
X13889928Y-13701929D01*
X13861357Y-13716214D01*
X13775643Y-13716214D01*
X13747071Y-13701929D01*
X13732786Y-13687643D01*
X14189928Y-13416214D02*
X14047071Y-13416214D01*
X14032786Y-13559071D01*
X14047071Y-13544786D01*
X14075643Y-13530500D01*
X14147071Y-13530500D01*
X14175643Y-13544786D01*
X14189928Y-13559071D01*
X14204214Y-13587643D01*
X14204214Y-13659071D01*
X14189928Y-13687643D01*
X14175643Y-13701929D01*
X14147071Y-13716214D01*
X14075643Y-13716214D01*
X14047071Y-13701929D01*
X14032786Y-13687643D01*
X14461357Y-13516214D02*
X14461357Y-13716214D01*
X14389928Y-13401929D02*
X14318500Y-13616214D01*
X14504214Y-13616214D01*
X14604214Y-13416214D02*
X14604214Y-13473357D01*
X14718500Y-13416214D02*
X14718500Y-13473357D01*
X15161357Y-13830500D02*
X15147071Y-13816214D01*
X15118500Y-13773357D01*
X15104214Y-13744786D01*
X15089928Y-13701929D01*
X15075643Y-13630500D01*
X15075643Y-13573357D01*
X15089928Y-13501929D01*
X15104214Y-13459071D01*
X15118500Y-13430500D01*
X15147071Y-13387643D01*
X15161357Y-13373357D01*
X15432786Y-13716214D02*
X15261357Y-13716214D01*
X15347071Y-13716214D02*
X15347071Y-13416214D01*
X15318500Y-13459071D01*
X15289928Y-13487643D01*
X15261357Y-13501929D01*
X15689928Y-13516214D02*
X15689928Y-13716214D01*
X15618500Y-13401929D02*
X15547071Y-13616214D01*
X15732786Y-13616214D01*
X16075643Y-13716214D02*
X16075643Y-13416214D01*
X16204214Y-13716214D02*
X16204214Y-13559071D01*
X16189928Y-13530500D01*
X16161357Y-13516214D01*
X16118500Y-13516214D01*
X16089928Y-13530500D01*
X16075643Y-13544786D01*
X16389928Y-13716214D02*
X16361357Y-13701929D01*
X16347071Y-13687643D01*
X16332786Y-13659071D01*
X16332786Y-13573357D01*
X16347071Y-13544786D01*
X16361357Y-13530500D01*
X16389928Y-13516214D01*
X16432786Y-13516214D01*
X16461357Y-13530500D01*
X16475643Y-13544786D01*
X16489928Y-13573357D01*
X16489928Y-13659071D01*
X16475643Y-13687643D01*
X16461357Y-13701929D01*
X16432786Y-13716214D01*
X16389928Y-13716214D01*
X16661357Y-13716214D02*
X16632786Y-13701929D01*
X16618500Y-13673357D01*
X16618500Y-13416214D01*
X16889928Y-13701929D02*
X16861357Y-13716214D01*
X16804214Y-13716214D01*
X16775643Y-13701929D01*
X16761357Y-13673357D01*
X16761357Y-13559071D01*
X16775643Y-13530500D01*
X16804214Y-13516214D01*
X16861357Y-13516214D01*
X16889928Y-13530500D01*
X16904214Y-13559071D01*
X16904214Y-13587643D01*
X16761357Y-13616214D01*
X17018500Y-13701929D02*
X17047071Y-13716214D01*
X17104214Y-13716214D01*
X17132786Y-13701929D01*
X17147071Y-13673357D01*
X17147071Y-13659071D01*
X17132786Y-13630500D01*
X17104214Y-13616214D01*
X17061357Y-13616214D01*
X17032786Y-13601929D01*
X17018500Y-13573357D01*
X17018500Y-13559071D01*
X17032786Y-13530500D01*
X17061357Y-13516214D01*
X17104214Y-13516214D01*
X17132786Y-13530500D01*
X17247071Y-13830500D02*
X17261357Y-13816214D01*
X17289928Y-13773357D01*
X17304214Y-13744786D01*
X17318500Y-13701929D01*
X17332786Y-13630500D01*
X17332786Y-13573357D01*
X17318500Y-13501929D01*
X17304214Y-13459071D01*
X17289928Y-13430500D01*
X17261357Y-13387643D01*
X17247071Y-13373357D01*
X9848500Y-14031500D02*
X9903500Y-13976500D01*
X9848500Y-13921500D01*
X9793500Y-13976500D01*
X9848500Y-14031500D01*
X10347071Y-14112214D02*
X10175643Y-14112214D01*
X10261357Y-14112214D02*
X10261357Y-13812214D01*
X10232786Y-13855071D01*
X10204214Y-13883643D01*
X10175643Y-13897929D01*
X10475643Y-14083643D02*
X10489928Y-14097929D01*
X10475643Y-14112214D01*
X10461357Y-14097929D01*
X10475643Y-14083643D01*
X10475643Y-14112214D01*
X10775643Y-14112214D02*
X10604214Y-14112214D01*
X10689928Y-14112214D02*
X10689928Y-13812214D01*
X10661357Y-13855071D01*
X10632786Y-13883643D01*
X10604214Y-13897929D01*
X10961357Y-13812214D02*
X10989928Y-13812214D01*
X11018500Y-13826500D01*
X11032786Y-13840786D01*
X11047071Y-13869357D01*
X11061357Y-13926500D01*
X11061357Y-13997929D01*
X11047071Y-14055071D01*
X11032786Y-14083643D01*
X11018500Y-14097929D01*
X10989928Y-14112214D01*
X10961357Y-14112214D01*
X10932786Y-14097929D01*
X10918500Y-14083643D01*
X10904214Y-14055071D01*
X10889928Y-13997929D01*
X10889928Y-13926500D01*
X10904214Y-13869357D01*
X10918500Y-13840786D01*
X10932786Y-13826500D01*
X10961357Y-13812214D01*
X11247071Y-13812214D02*
X11275643Y-13812214D01*
X11304214Y-13826500D01*
X11318500Y-13840786D01*
X11332786Y-13869357D01*
X11347071Y-13926500D01*
X11347071Y-13997929D01*
X11332786Y-14055071D01*
X11318500Y-14083643D01*
X11304214Y-14097929D01*
X11275643Y-14112214D01*
X11247071Y-14112214D01*
X11218500Y-14097929D01*
X11204214Y-14083643D01*
X11189928Y-14055071D01*
X11175643Y-13997929D01*
X11175643Y-13926500D01*
X11189928Y-13869357D01*
X11204214Y-13840786D01*
X11218500Y-13826500D01*
X11247071Y-13812214D01*
X11475643Y-14112214D02*
X11475643Y-13912214D01*
X11475643Y-13940786D02*
X11489928Y-13926500D01*
X11518500Y-13912214D01*
X11561357Y-13912214D01*
X11589928Y-13926500D01*
X11604214Y-13955071D01*
X11604214Y-14112214D01*
X11604214Y-13955071D02*
X11618500Y-13926500D01*
X11647071Y-13912214D01*
X11689928Y-13912214D01*
X11718500Y-13926500D01*
X11732786Y-13955071D01*
X11732786Y-14112214D01*
X11875643Y-14112214D02*
X11875643Y-13912214D01*
X11875643Y-13940786D02*
X11889928Y-13926500D01*
X11918500Y-13912214D01*
X11961357Y-13912214D01*
X11989928Y-13926500D01*
X12004214Y-13955071D01*
X12004214Y-14112214D01*
X12004214Y-13955071D02*
X12018500Y-13926500D01*
X12047071Y-13912214D01*
X12089928Y-13912214D01*
X12118500Y-13926500D01*
X12132786Y-13955071D01*
X12132786Y-14112214D01*
X12718500Y-13797929D02*
X12461357Y-14183643D01*
X13104214Y-13812214D02*
X13132786Y-13812214D01*
X13161357Y-13826500D01*
X13175643Y-13840786D01*
X13189928Y-13869357D01*
X13204214Y-13926500D01*
X13204214Y-13997929D01*
X13189928Y-14055071D01*
X13175643Y-14083643D01*
X13161357Y-14097929D01*
X13132786Y-14112214D01*
X13104214Y-14112214D01*
X13075643Y-14097929D01*
X13061357Y-14083643D01*
X13047071Y-14055071D01*
X13032786Y-13997929D01*
X13032786Y-13926500D01*
X13047071Y-13869357D01*
X13061357Y-13840786D01*
X13075643Y-13826500D01*
X13104214Y-13812214D01*
X13332786Y-14083643D02*
X13347071Y-14097929D01*
X13332786Y-14112214D01*
X13318500Y-14097929D01*
X13332786Y-14083643D01*
X13332786Y-14112214D01*
X13532786Y-13812214D02*
X13561357Y-13812214D01*
X13589928Y-13826500D01*
X13604214Y-13840786D01*
X13618500Y-13869357D01*
X13632786Y-13926500D01*
X13632786Y-13997929D01*
X13618500Y-14055071D01*
X13604214Y-14083643D01*
X13589928Y-14097929D01*
X13561357Y-14112214D01*
X13532786Y-14112214D01*
X13504214Y-14097929D01*
X13489928Y-14083643D01*
X13475643Y-14055071D01*
X13461357Y-13997929D01*
X13461357Y-13926500D01*
X13475643Y-13869357D01*
X13489928Y-13840786D01*
X13504214Y-13826500D01*
X13532786Y-13812214D01*
X13889928Y-13912214D02*
X13889928Y-14112214D01*
X13818500Y-13797929D02*
X13747071Y-14012214D01*
X13932786Y-14012214D01*
X14018500Y-13812214D02*
X14204214Y-13812214D01*
X14104214Y-13926500D01*
X14147071Y-13926500D01*
X14175643Y-13940786D01*
X14189928Y-13955071D01*
X14204214Y-13983643D01*
X14204214Y-14055071D01*
X14189928Y-14083643D01*
X14175643Y-14097929D01*
X14147071Y-14112214D01*
X14061357Y-14112214D01*
X14032786Y-14097929D01*
X14018500Y-14083643D01*
X14304214Y-13812214D02*
X14489928Y-13812214D01*
X14389928Y-13926500D01*
X14432786Y-13926500D01*
X14461357Y-13940786D01*
X14475643Y-13955071D01*
X14489928Y-13983643D01*
X14489928Y-14055071D01*
X14475643Y-14083643D01*
X14461357Y-14097929D01*
X14432786Y-14112214D01*
X14347071Y-14112214D01*
X14318500Y-14097929D01*
X14304214Y-14083643D01*
X14604214Y-13812214D02*
X14604214Y-13869357D01*
X14718500Y-13812214D02*
X14718500Y-13869357D01*
X15161357Y-14226500D02*
X15147071Y-14212214D01*
X15118500Y-14169357D01*
X15104214Y-14140786D01*
X15089928Y-14097929D01*
X15075643Y-14026500D01*
X15075643Y-13969357D01*
X15089928Y-13897929D01*
X15104214Y-13855071D01*
X15118500Y-13826500D01*
X15147071Y-13783643D01*
X15161357Y-13769357D01*
X15432786Y-14112214D02*
X15261357Y-14112214D01*
X15347071Y-14112214D02*
X15347071Y-13812214D01*
X15318500Y-13855071D01*
X15289928Y-13883643D01*
X15261357Y-13897929D01*
X15718500Y-14112214D02*
X15547071Y-14112214D01*
X15632786Y-14112214D02*
X15632786Y-13812214D01*
X15604214Y-13855071D01*
X15575643Y-13883643D01*
X15547071Y-13897929D01*
X16075643Y-14112214D02*
X16075643Y-13812214D01*
X16204214Y-14112214D02*
X16204214Y-13955071D01*
X16189928Y-13926500D01*
X16161357Y-13912214D01*
X16118500Y-13912214D01*
X16089928Y-13926500D01*
X16075643Y-13940786D01*
X16389928Y-14112214D02*
X16361357Y-14097929D01*
X16347071Y-14083643D01*
X16332786Y-14055071D01*
X16332786Y-13969357D01*
X16347071Y-13940786D01*
X16361357Y-13926500D01*
X16389928Y-13912214D01*
X16432786Y-13912214D01*
X16461357Y-13926500D01*
X16475643Y-13940786D01*
X16489928Y-13969357D01*
X16489928Y-14055071D01*
X16475643Y-14083643D01*
X16461357Y-14097929D01*
X16432786Y-14112214D01*
X16389928Y-14112214D01*
X16661357Y-14112214D02*
X16632786Y-14097929D01*
X16618500Y-14069357D01*
X16618500Y-13812214D01*
X16889928Y-14097929D02*
X16861357Y-14112214D01*
X16804214Y-14112214D01*
X16775643Y-14097929D01*
X16761357Y-14069357D01*
X16761357Y-13955071D01*
X16775643Y-13926500D01*
X16804214Y-13912214D01*
X16861357Y-13912214D01*
X16889928Y-13926500D01*
X16904214Y-13955071D01*
X16904214Y-13983643D01*
X16761357Y-14012214D01*
X17018500Y-14097929D02*
X17047071Y-14112214D01*
X17104214Y-14112214D01*
X17132786Y-14097929D01*
X17147071Y-14069357D01*
X17147071Y-14055071D01*
X17132786Y-14026500D01*
X17104214Y-14012214D01*
X17061357Y-14012214D01*
X17032786Y-13997929D01*
X17018500Y-13969357D01*
X17018500Y-13955071D01*
X17032786Y-13926500D01*
X17061357Y-13912214D01*
X17104214Y-13912214D01*
X17132786Y-13926500D01*
X17247071Y-14226500D02*
X17261357Y-14212214D01*
X17289928Y-14169357D01*
X17304214Y-14140786D01*
X17318500Y-14097929D01*
X17332786Y-14026500D01*
X17332786Y-13969357D01*
X17318500Y-13897929D01*
X17304214Y-13855071D01*
X17289928Y-13826500D01*
X17261357Y-13783643D01*
X17247071Y-13769357D01*
X9771500Y-14306500D02*
X9903500Y-14438500D01*
X9903500Y-14306500D02*
X9771500Y-14438500D01*
X9903500Y-14372500D02*
G75*
G03*
X9903500Y-14372500I-66000J0D01*
G01*
X10347071Y-14508214D02*
X10175643Y-14508214D01*
X10261357Y-14508214D02*
X10261357Y-14208214D01*
X10232786Y-14251071D01*
X10204214Y-14279643D01*
X10175643Y-14293929D01*
X10475643Y-14479643D02*
X10489928Y-14493929D01*
X10475643Y-14508214D01*
X10461357Y-14493929D01*
X10475643Y-14479643D01*
X10475643Y-14508214D01*
X10589928Y-14208214D02*
X10775643Y-14208214D01*
X10675643Y-14322500D01*
X10718500Y-14322500D01*
X10747071Y-14336786D01*
X10761357Y-14351071D01*
X10775643Y-14379643D01*
X10775643Y-14451071D01*
X10761357Y-14479643D01*
X10747071Y-14493929D01*
X10718500Y-14508214D01*
X10632786Y-14508214D01*
X10604214Y-14493929D01*
X10589928Y-14479643D01*
X10889928Y-14236786D02*
X10904214Y-14222500D01*
X10932786Y-14208214D01*
X11004214Y-14208214D01*
X11032786Y-14222500D01*
X11047071Y-14236786D01*
X11061357Y-14265357D01*
X11061357Y-14293929D01*
X11047071Y-14336786D01*
X10875643Y-14508214D01*
X11061357Y-14508214D01*
X11247071Y-14208214D02*
X11275643Y-14208214D01*
X11304214Y-14222500D01*
X11318500Y-14236786D01*
X11332786Y-14265357D01*
X11347071Y-14322500D01*
X11347071Y-14393929D01*
X11332786Y-14451071D01*
X11318500Y-14479643D01*
X11304214Y-14493929D01*
X11275643Y-14508214D01*
X11247071Y-14508214D01*
X11218500Y-14493929D01*
X11204214Y-14479643D01*
X11189928Y-14451071D01*
X11175643Y-14393929D01*
X11175643Y-14322500D01*
X11189928Y-14265357D01*
X11204214Y-14236786D01*
X11218500Y-14222500D01*
X11247071Y-14208214D01*
X11475643Y-14508214D02*
X11475643Y-14308214D01*
X11475643Y-14336786D02*
X11489928Y-14322500D01*
X11518500Y-14308214D01*
X11561357Y-14308214D01*
X11589928Y-14322500D01*
X11604214Y-14351071D01*
X11604214Y-14508214D01*
X11604214Y-14351071D02*
X11618500Y-14322500D01*
X11647071Y-14308214D01*
X11689928Y-14308214D01*
X11718500Y-14322500D01*
X11732786Y-14351071D01*
X11732786Y-14508214D01*
X11875643Y-14508214D02*
X11875643Y-14308214D01*
X11875643Y-14336786D02*
X11889928Y-14322500D01*
X11918500Y-14308214D01*
X11961357Y-14308214D01*
X11989928Y-14322500D01*
X12004214Y-14351071D01*
X12004214Y-14508214D01*
X12004214Y-14351071D02*
X12018500Y-14322500D01*
X12047071Y-14308214D01*
X12089928Y-14308214D01*
X12118500Y-14322500D01*
X12132786Y-14351071D01*
X12132786Y-14508214D01*
X12718500Y-14193929D02*
X12461357Y-14579643D01*
X13104214Y-14208214D02*
X13132786Y-14208214D01*
X13161357Y-14222500D01*
X13175643Y-14236786D01*
X13189928Y-14265357D01*
X13204214Y-14322500D01*
X13204214Y-14393929D01*
X13189928Y-14451071D01*
X13175643Y-14479643D01*
X13161357Y-14493929D01*
X13132786Y-14508214D01*
X13104214Y-14508214D01*
X13075643Y-14493929D01*
X13061357Y-14479643D01*
X13047071Y-14451071D01*
X13032786Y-14393929D01*
X13032786Y-14322500D01*
X13047071Y-14265357D01*
X13061357Y-14236786D01*
X13075643Y-14222500D01*
X13104214Y-14208214D01*
X13332786Y-14479643D02*
X13347071Y-14493929D01*
X13332786Y-14508214D01*
X13318500Y-14493929D01*
X13332786Y-14479643D01*
X13332786Y-14508214D01*
X13532786Y-14208214D02*
X13561357Y-14208214D01*
X13589928Y-14222500D01*
X13604214Y-14236786D01*
X13618500Y-14265357D01*
X13632786Y-14322500D01*
X13632786Y-14393929D01*
X13618500Y-14451071D01*
X13604214Y-14479643D01*
X13589928Y-14493929D01*
X13561357Y-14508214D01*
X13532786Y-14508214D01*
X13504214Y-14493929D01*
X13489928Y-14479643D01*
X13475643Y-14451071D01*
X13461357Y-14393929D01*
X13461357Y-14322500D01*
X13475643Y-14265357D01*
X13489928Y-14236786D01*
X13504214Y-14222500D01*
X13532786Y-14208214D01*
X13904214Y-14208214D02*
X13761357Y-14208214D01*
X13747071Y-14351071D01*
X13761357Y-14336786D01*
X13789928Y-14322500D01*
X13861357Y-14322500D01*
X13889928Y-14336786D01*
X13904214Y-14351071D01*
X13918500Y-14379643D01*
X13918500Y-14451071D01*
X13904214Y-14479643D01*
X13889928Y-14493929D01*
X13861357Y-14508214D01*
X13789928Y-14508214D01*
X13761357Y-14493929D01*
X13747071Y-14479643D01*
X14032786Y-14236786D02*
X14047071Y-14222500D01*
X14075643Y-14208214D01*
X14147071Y-14208214D01*
X14175643Y-14222500D01*
X14189928Y-14236786D01*
X14204214Y-14265357D01*
X14204214Y-14293929D01*
X14189928Y-14336786D01*
X14018500Y-14508214D01*
X14204214Y-14508214D01*
X14389928Y-14208214D02*
X14418500Y-14208214D01*
X14447071Y-14222500D01*
X14461357Y-14236786D01*
X14475643Y-14265357D01*
X14489928Y-14322500D01*
X14489928Y-14393929D01*
X14475643Y-14451071D01*
X14461357Y-14479643D01*
X14447071Y-14493929D01*
X14418500Y-14508214D01*
X14389928Y-14508214D01*
X14361357Y-14493929D01*
X14347071Y-14479643D01*
X14332786Y-14451071D01*
X14318500Y-14393929D01*
X14318500Y-14322500D01*
X14332786Y-14265357D01*
X14347071Y-14236786D01*
X14361357Y-14222500D01*
X14389928Y-14208214D01*
X14604214Y-14208214D02*
X14604214Y-14265357D01*
X14718500Y-14208214D02*
X14718500Y-14265357D01*
X15161357Y-14622500D02*
X15147071Y-14608214D01*
X15118500Y-14565357D01*
X15104214Y-14536786D01*
X15089928Y-14493929D01*
X15075643Y-14422500D01*
X15075643Y-14365357D01*
X15089928Y-14293929D01*
X15104214Y-14251071D01*
X15118500Y-14222500D01*
X15147071Y-14179643D01*
X15161357Y-14165357D01*
X15318500Y-14336786D02*
X15289928Y-14322500D01*
X15275643Y-14308214D01*
X15261357Y-14279643D01*
X15261357Y-14265357D01*
X15275643Y-14236786D01*
X15289928Y-14222500D01*
X15318500Y-14208214D01*
X15375643Y-14208214D01*
X15404214Y-14222500D01*
X15418500Y-14236786D01*
X15432786Y-14265357D01*
X15432786Y-14279643D01*
X15418500Y-14308214D01*
X15404214Y-14322500D01*
X15375643Y-14336786D01*
X15318500Y-14336786D01*
X15289928Y-14351071D01*
X15275643Y-14365357D01*
X15261357Y-14393929D01*
X15261357Y-14451071D01*
X15275643Y-14479643D01*
X15289928Y-14493929D01*
X15318500Y-14508214D01*
X15375643Y-14508214D01*
X15404214Y-14493929D01*
X15418500Y-14479643D01*
X15432786Y-14451071D01*
X15432786Y-14393929D01*
X15418500Y-14365357D01*
X15404214Y-14351071D01*
X15375643Y-14336786D01*
X15789928Y-14508214D02*
X15789928Y-14208214D01*
X15918500Y-14508214D02*
X15918500Y-14351071D01*
X15904214Y-14322500D01*
X15875643Y-14308214D01*
X15832786Y-14308214D01*
X15804214Y-14322500D01*
X15789928Y-14336786D01*
X16104214Y-14508214D02*
X16075643Y-14493929D01*
X16061357Y-14479643D01*
X16047071Y-14451071D01*
X16047071Y-14365357D01*
X16061357Y-14336786D01*
X16075643Y-14322500D01*
X16104214Y-14308214D01*
X16147071Y-14308214D01*
X16175643Y-14322500D01*
X16189928Y-14336786D01*
X16204214Y-14365357D01*
X16204214Y-14451071D01*
X16189928Y-14479643D01*
X16175643Y-14493929D01*
X16147071Y-14508214D01*
X16104214Y-14508214D01*
X16375643Y-14508214D02*
X16347071Y-14493929D01*
X16332786Y-14465357D01*
X16332786Y-14208214D01*
X16604214Y-14493929D02*
X16575643Y-14508214D01*
X16518500Y-14508214D01*
X16489928Y-14493929D01*
X16475643Y-14465357D01*
X16475643Y-14351071D01*
X16489928Y-14322500D01*
X16518500Y-14308214D01*
X16575643Y-14308214D01*
X16604214Y-14322500D01*
X16618500Y-14351071D01*
X16618500Y-14379643D01*
X16475643Y-14408214D01*
X16732786Y-14493929D02*
X16761357Y-14508214D01*
X16818500Y-14508214D01*
X16847071Y-14493929D01*
X16861357Y-14465357D01*
X16861357Y-14451071D01*
X16847071Y-14422500D01*
X16818500Y-14408214D01*
X16775643Y-14408214D01*
X16747071Y-14393929D01*
X16732786Y-14365357D01*
X16732786Y-14351071D01*
X16747071Y-14322500D01*
X16775643Y-14308214D01*
X16818500Y-14308214D01*
X16847071Y-14322500D01*
X16961357Y-14622500D02*
X16975643Y-14608214D01*
X17004214Y-14565357D01*
X17018500Y-14536786D01*
X17032786Y-14493929D01*
X17047071Y-14422500D01*
X17047071Y-14365357D01*
X17032786Y-14293929D01*
X17018500Y-14251071D01*
X17004214Y-14222500D01*
X16975643Y-14179643D01*
X16961357Y-14165357D01*
M02*
