M48
; DRILL file {KiCad (5.1.10)-1} date 10/13/21 19:13:34
; FORMAT={-:-/ absolute / inch / decimal}
; #@! TF.CreationDate,2021-10-13T19:13:34-05:00
; #@! TF.GenerationSoftware,Kicad,Pcbnew,(5.1.10)-1
; #@! TF.FileFunction,Plated,1,2,PTH
FMAT,2
INCH
T1C0.0276
T2C0.0295
T3C0.0315
T4C0.0354
T5C0.0433
T6C0.0520
%
G90
G05
T1
X5.48Y-3.65
X5.48Y-3.75
X5.48Y-4.1539
X5.48Y-4.25
X5.78Y-3.65
X5.78Y-3.75
X5.78Y-4.1539
X5.78Y-4.25
T2
X5.61Y-3.25
X5.61Y-3.3
X5.61Y-3.35
T3
X4.6Y-3.55
X4.6Y-3.8
X4.66Y-3.25
X4.7387Y-3.25
X4.775Y-2.65
X4.775Y-2.95
X4.875Y-2.65
X4.875Y-2.95
X4.96Y-3.25
X4.975Y-2.65
X4.975Y-2.95
X5.0387Y-3.25
X5.075Y-2.65
X5.075Y-2.95
X5.1Y-3.55
X5.1Y-3.8
X5.28Y-3.14
X5.28Y-3.64
X5.28Y-3.77
X5.28Y-4.27
X5.97Y-3.23
X5.97Y-3.73
T4
X4.0301Y-3.95
X4.0301Y-4.0484
X4.0301Y-4.1469
X4.16Y-3.95
X4.16Y-4.0484
X4.16Y-4.1469
X4.87Y-4.11
X4.97Y-4.11
X6.45Y-3.07
X6.45Y-3.1999
X6.5484Y-3.07
X6.5484Y-3.1999
X6.6469Y-3.07
X6.6469Y-3.1999
T5
X4.37Y-4.0
X4.37Y-4.1772
X4.6259Y-4.0
X4.6259Y-4.1772
X5.28Y-2.73
X5.28Y-2.83
X5.28Y-2.93
X6.5Y-3.9941
X6.5Y-4.25
X6.6772Y-3.9941
X6.6772Y-4.25
T6
X4.25Y-2.78
X4.25Y-2.9769
X4.25Y-3.4
X4.25Y-3.5969
X6.02Y-4.1
X6.2169Y-4.1
X6.48Y-3.4631
X6.48Y-3.66
T0
M30
